<svg width="55" height="55" viewBox="0 0 50 50" fill="none" xmlns="http://www.w3.org/2000/svg">
<rect x="0.5" y="0.5" width="49" height="49" rx="24.5" stroke="#FFF" stroke-opacity="0.125"/>
<path d="M32.3889 15.5C32.9488 15.5 33.4858 15.7224 33.8817 16.1183C34.2776 16.5142 34.5 17.0512 34.5 17.6111V32.3889C34.5 32.9488 34.2776 33.4858 33.8817 33.8817C33.4858 34.2776 32.9488 34.5 32.3889 34.5H17.6111C17.0512 34.5 16.5142 34.2776 16.1183 33.8817C15.7224 33.4858 15.5 32.9488 15.5 32.3889V17.6111C15.5 17.0512 15.7224 16.5142 16.1183 16.1183C16.5142 15.7224 17.0512 15.5 17.6111 15.5H32.3889ZM31.8611 31.8611V26.2667C31.8611 25.354 31.4986 24.4788 30.8532 23.8334C30.2079 23.1881 29.3326 22.8256 28.42 22.8256C27.5228 22.8256 26.4778 23.3744 25.9711 24.1978V23.0261H23.0261V31.8611H25.9711V26.6572C25.9711 25.8444 26.6256 25.1794 27.4383 25.1794C27.8303 25.1794 28.2061 25.3351 28.4833 25.6123C28.7604 25.8894 28.9161 26.2653 28.9161 26.6572V31.8611H31.8611ZM19.5956 21.3689C20.0659 21.3689 20.5169 21.1821 20.8495 20.8495C21.1821 20.5169 21.3689 20.0659 21.3689 19.5956C21.3689 18.6139 20.5772 17.8117 19.5956 17.8117C19.1224 17.8117 18.6687 17.9996 18.3342 18.3342C17.9996 18.6687 17.8117 19.1224 17.8117 19.5956C17.8117 20.5772 18.6139 21.3689 19.5956 21.3689ZM21.0628 31.8611V23.0261H18.1389V31.8611H21.0628Z" fill="#FFF"/>
</svg>
